<svg width="400" height="400" viewBox="0 0 400 400" fill="none" xmlns="http://www.w3.org/2000/svg">
<path fill-rule="evenodd" clip-rule="evenodd" d="M42.86 0H357.143C380.812 0 400 19.1879 400 42.8575V271.431C400 295.1 380.812 314.288 357.143 314.288H306.429L314.2 384.146C315.067 391.988 309.412 399.047 301.569 399.914C297.52 400.361 293.472 399.057 290.443 396.332L199.273 314.288H42.86C19.1909 314.288 0.00326538 295.1 0.00326538 271.431V42.8575C0.00326538 19.1879 19.1909 0 42.86 0ZM328.851 82.8673H71.0408V115.513H328.851V82.8673ZM71.0408 145.647H328.851V178.292H71.0408V145.647Z" fill="white"/>
</svg>
