<?xml version="1.0" encoding="iso-8859-1"?>
<!-- Generator: Adobe Illustrator 17.1.0, SVG Export Plug-In . SVG Version: 6.00 Build 0)  -->
<!DOCTYPE svg PUBLIC "-//W3C//DTD SVG 1.1//EN" "http://www.w3.org/Graphics/SVG/1.1/DTD/svg11.dtd">
<svg version="1.1" id="Capa_1" xmlns="http://www.w3.org/2000/svg" xmlns:xlink="http://www.w3.org/1999/xlink" x="0px" y="0px"
	 viewBox="0 0 172.693 172.693" style="enable-background:new 0 0 172.693 172.693;" xml:space="preserve" fill="#1DBC98">
<path  d="M164.607,172.693H8.086c-1.381,0-2.5-1.119-2.5-2.5v-29.897c0-11.535,6.92-21.756,17.63-26.039
	L60.25,99.443c0.631-0.252,1.335-0.236,1.952,0.04c0.618,0.277,1.097,0.794,1.327,1.431l10.975,30.34l3.666-10.541l-3.181-7.777
	c-0.315-0.771-0.227-1.648,0.238-2.34c0.464-0.691,1.242-1.106,2.075-1.106h18.09c0.833,0,1.611,0.415,2.075,1.106
	c0.465,0.691,0.554,1.569,0.238,2.34l-3.181,7.777l3.666,10.541l10.975-30.34c0.23-0.637,0.709-1.153,1.327-1.431
	c0.619-0.276,1.323-0.29,1.952-0.04l37.033,14.813c10.709,4.283,17.629,14.504,17.629,26.039v29.897
	C167.107,171.574,165.988,172.693,164.607,172.693z M10.586,167.693h151.521v-27.397c0-9.479-5.687-17.877-14.486-21.396l0,0
	l-34.633-13.854l-12.492,34.536c-0.357,0.99-1.298,1.649-2.351,1.649c-0.005,0-0.01,0-0.016,0c-1.059-0.007-1.998-0.679-2.346-1.679
	l-6.292-18.09c-0.2-0.575-0.184-1.204,0.048-1.768l2.129-5.206H81.026l2.129,5.206c0.231,0.563,0.248,1.192,0.048,1.768
	l-6.292,18.09c-0.348,1-1.287,1.672-2.346,1.679c-1.083,0.031-2.006-0.654-2.366-1.649l-12.492-34.536l-34.633,13.854
	c-8.801,3.52-14.487,11.918-14.487,21.396V167.693z M142.256,163.141h-28.834c-1.381,0-2.5-1.119-2.5-2.5v-17.75
	c0-1.381,1.119-2.5,2.5-2.5h28.834c1.381,0,2.5,1.119,2.5,2.5v17.75C144.756,162.021,143.637,163.141,142.256,163.141z
	 M115.922,158.141h23.834v-12.75h-23.834V158.141z M86.347,96.957c-3.934,0.001-7.866-0.727-11.529-2.181
	c-2.834-1.123-5.178-2.538-6.963-4.205c-4.97-4.638-10.14-14.604-12.003-18.391c-3.334-0.187-9.831-1.99-12.635-12.71
	c-1.413-5.403-1.093-9.743,0.951-12.899c1.127-1.737,2.546-2.753,3.712-3.338c-0.099-5.128,0.528-19.313,9.544-29.998
	C68.466,0.15,85.623,0,86.347,0s17.881,0.15,28.923,13.235c9.016,10.686,9.642,24.87,9.543,29.998
	c1.166,0.585,2.585,1.601,3.712,3.338c2.044,3.156,2.364,7.496,0.951,12.899c-2.803,10.719-9.3,12.523-12.634,12.71
	c-1.863,3.787-7.033,13.753-12.003,18.391c-1.786,1.667-4.129,3.082-6.963,4.206C94.213,96.23,90.28,96.957,86.347,96.957z
	 M57.407,67.144c0.957,0,1.85,0.552,2.266,1.446c0.063,0.132,6.232,13.321,11.595,18.327c1.327,1.238,3.142,2.319,5.394,3.212
	c6.156,2.443,13.216,2.443,19.372,0c2.252-0.893,4.067-1.974,5.395-3.213c5.362-5.005,11.532-18.194,11.595-18.326
	c0.488-1.05,1.633-1.627,2.768-1.396c0.604,0.1,6.292,0.789,8.849-8.989c1.028-3.932,0.922-7.015-0.31-8.915
	c-0.999-1.541-2.491-1.875-2.506-1.878c-1.286-0.214-2.191-1.381-2.08-2.68l0,0c0.009-0.095,0.427-5.514-0.962-12.262
	c-6.562,0.615-25.624,1.939-35.186-2.294c-6.469-2.862-10.922-6.258-13.615-8.728c-0.974,2.776-2.581,6.32-5.039,8.974
	c-4.21,4.547-9.303,6.949-11.876,7.953c-0.316,3.751-0.12,6.292-0.114,6.356c0.109,1.298-0.796,2.466-2.08,2.68
	c-0.021,0.006-1.55,0.337-2.556,1.958c-1.184,1.905-1.273,4.961-0.26,8.835c2.649,10.132,8.789,9.002,8.85,8.989
	C57.073,67.16,57.241,67.144,57.407,67.144z M86.347,5c-0.15,0.001-15.588,0.186-25.101,11.46
	c-4.168,4.939-6.283,10.886-7.341,16.048c2.198-1.131,4.979-2.903,7.367-5.481c3.62-3.91,5.034-10.882,5.048-10.951
	c0.192-0.97,0.937-1.736,1.9-1.954c0.967-0.22,1.965,0.149,2.557,0.941c0.04,0.053,4.646,6.03,14.841,10.542
	c8.052,3.565,25.011,2.552,31.86,1.958c-1.248-3.787-3.148-7.687-6.031-11.103C101.889,5.131,86.501,5,86.347,5z"/>
<g>
</g>
<g>
</g>
<g>
</g>
<g>
</g>
<g>
</g>
<g>
</g>
<g>
</g>
<g>
</g>
<g>
</g>
<g>
</g>
<g>
</g>
<g>
</g>
<g>
</g>
<g>
</g>
<g>
</g>
</svg>
