<svg id="Layer_3" fill="#1DBC98" enable-background="new 0 0 64 64" height="512" viewBox="0 0 64 64" width="512" xmlns="http://www.w3.org/2000/svg"><g><path d="m57.816 61c.112-.314.184-.648.184-1s-.072-.686-.184-1h2.184v-2h-2v-5c0-.553-.447-1-1-1h-3v-5c0-.553-.447-1-1-1h-1v-13c0-.553-.447-1-1-1h-38c-.553 0-1 .447-1 1v29h-4v-36.707l24-15.111 24 15.112v24.706h2v-23.447l.467.294c.165.103.349.153.532.153.306 0 .605-.14.801-.4l3-4c.168-.223.234-.506.184-.78s-.213-.515-.448-.664l-30-19c-.326-.207-.744-.207-1.07 0l-30 19c-.235.149-.398.39-.448.664-.052.274.014.557.182.78l3 4c.312.417.892.524 1.333.247l.467-.294v35.447h-5v2h62v-2zm-52.569-37.337-1.798-2.397 28.551-18.082 28.551 18.082-1.798 2.397-26.22-16.51c-.163-.102-.348-.153-.533-.153s-.37.051-.533.153zm50.753 36.337c0 .552-.448 1-1 1s-1-.448-1-1 .448-1 1-1 1 .448 1 1zm-12 0c0-.552.448-1 1-1s1 .448 1 1-.448 1-1 1-1-.448-1-1zm-2-7h2v2h2v-2h2v4h-6zm5.816 6h4.369c-.113.314-.185.648-.185 1s.072.686.184 1h-4.369c.113-.314.185-.648.185-1s-.072-.686-.184-1zm8.184-2h-6v-4h2v2h2v-2h2zm-10-6v-4h2v2h2v-2h2v4zm-1-6c-.553 0-1 .447-1 1v5h-2v-7c0-.553-.447-1-1-1h-4v2h3v13c0 .553.447 1 1 1h1.184c-.112.314-.184.648-.184 1s.072.686.184 1h-4.184v-5c0-.553-.447-1-1-1h-7v-5c0-.553-.447-1-1-1h-7v-5c0-.553-.447-1-1-1h-7v-2h36v4zm-31 10v-4h2v2h2v-2h2v4zm4-8v-2h2v4h-6v-4h2v2zm8 6v-2h2v4h-6v-4h2v2zm-4 4h2v2h2v-2h2v4h-6zm8 0h2v2h2v-2h2v4h-6zm20-18h-36v-2h36zm0-6v2h-36v-2zm-36 24h2v2h2v-2h2v4h-6z"/><path d="m20 21c-.553 0-1 .447-1 1v6c0 .553.447 1 1 1h24c.553 0 1-.447 1-1v-6c0-.553-.447-1-1-1zm23 6h-22v-4h22z"/></g></svg>